/* XPM */
static char *_b9c6b940ce6494caa629742052703e8SUVHKdkQ9XOGgOFu[] = {
/* columns rows colors chars-per-pixel */
"48 48 27 1 ",
"  c #C0D470",
". c #C1D470",
"X c #BED36F",
"o c #BAD06D",
"O c #BBD16D",
"+ c #BFD36F",
"@ c #AFC968",
"# c #BBD16E",
"$ c #ADC867",
"% c #B5CD6B",
"& c #C1D570",
"* c #C0D46F",
"= c #BFD46F",
"- c #C3D674",
"; c #C8D97C",
": c #C8D97B",
"> c #C2D573",
", c #D8E494",
"< c #D8E392",
"1 c #C7D879",
"2 c #D8E493",
"3 c #DBE597",
"4 c #CFDE86",
"5 c #C7D97B",
"6 c #D0DE87",
"7 c #BFD36E",
"8 c white",
/* pixels */
"                                                ",
"                                                ",
"                                                ",
"                                                ",
"   ..  ..                                      .",
"  XoO++OoX                                     .",
" .o@@##@@o.                                     ",
" .o@$%%$@o.                                     ",
"  X#%$$%#X                                      ",
"   &#@@#&                                       ",
"    XooX                             ..  ..     ",
"     ..                             XoO++OoX    ",
"                                   .o@@##@@o.   ",
"                                   .o@$%%$@o.   ",
"                                    X#%$$%#X    ",
"                                     &#@@#&     ",
"                                      XooX      ",
"                                       ..       ",
"                                                ",
"                                                ",
"                                                ",
"                   **  **                       ",
"                   ==  ==                       ",
"                  -;:>>:;-                      ",
"                *=;,<11<,;=*                    ",
"                *=:234432:=*             **  ** ",
"                  >563365>               ==  == ",
"                  =752257=              -;:>>:;-",
"                   =>::>=             *=;,<11<,;",
"                     ==               *=:234432:",
"                     **                 >563365>",
"                                        =752257=",
"                                         =>::>= ",
"                                           ==   ",
"                                           **   ",
"     **  **                                     ",
"     ==  ==                                     ",
"    -;:>>:;-                                    ",
"  *=;,<11<,;=*                                  ",
"  *=:234432:=*                                  ",
"    >563365>                                    ",
"    =752257=                                    ",
"     =>::>=                                     ",
"       ==                                       ",
"       **                                       ",
"                                                ",
"                                                ",
"                                                "
};
