/* XPM */
static char *_30552ca7dea499d9d1feebb10cdcf39UvLfxabb8auB4iMJ[] = {
/* columns rows colors chars-per-pixel */
"48 48 167 2 ",
"   c #7C5668",
".  c #5E7676",
"X  c #66606A",
"o  c #68606B",
"O  c #78606D",
"+  c #647C79",
"@  c #737176",
"#  c #757579",
"$  c #974F6D",
"%  c #865467",
"&  c #98516E",
"*  c #975C6F",
"=  c #9C5B6E",
"-  c #9D5670",
";  c #9C5A76",
":  c #965A7A",
">  c #9B5E7A",
",  c #A2596F",
"<  c #A35D73",
"1  c #A05F78",
"2  c #836372",
"3  c #966272",
"4  c #9A6675",
"5  c #9F6B77",
"6  c #9E627D",
"7  c #84767E",
"8  c #A56076",
"9  c #AD6575",
"0  c #A3667E",
"q  c #A4687F",
"w  c #AD687A",
"e  c #B06776",
"r  c #B16877",
"t  c #B56D7A",
"y  c #A0707F",
"u  c #B5727F",
"i  c #BC747E",
"p  c #618176",
"a  c #62827A",
"s  c #678A7C",
"d  c #6B8C7B",
"f  c #6B927C",
"g  c #70937C",
"h  c #71987D",
"j  c #ADC867",
"k  c #AFC968",
"l  c #B5CD6B",
"z  c #BCCD6E",
"x  c #BDD26E",
"c  c #BFC676",
"v  c #BCD171",
"b  c #C0D46F",
"n  c #C0D470",
"m  c #C4D77A",
"M  c #C7D97B",
"N  c #C8D97B",
"B  c #9B6482",
"V  c #957883",
"C  c #A36C84",
"Z  c #AB6F82",
"A  c #AC7083",
"S  c #AA758A",
"D  c #B17483",
"F  c #BF7780",
"G  c #BF7881",
"H  c #AE7E92",
"J  c #C37C83",
"K  c #6C8681",
"L  c #738D86",
"P  c #768E89",
"I  c #779B81",
"U  c #799885",
"Y  c #7C998B",
"T  c #7F9591",
"R  c #7DA382",
"E  c #849A92",
"W  c #B7828D",
"Q  c #BA848F",
"!  c #AD8294",
"~  c #BC8A95",
"^  c #B38B9B",
"/  c #B6909F",
"(  c #80A783",
")  c #91A39B",
"_  c #95A89D",
"`  c #BA95A4",
"'  c #B09EA2",
"]  c #BB9AA3",
"[  c #9CAFA7",
"{  c #A9AAA7",
"}  c #B9A0A4",
"|  c #A2B3A9",
" . c #ACB9B3",
".. c #C68187",
"X. c #C78288",
"o. c #C9858A",
"O. c #CD8B8E",
"+. c #CF8C90",
"@. c #C09098",
"#. c #C3A5AF",
"$. c #C3A9AB",
"%. c #CCB4AE",
"&. c #D0B7AF",
"*. c #C1A4B0",
"=. c #C4B5B4",
"-. c #CEB3B0",
";. c #CAB9B1",
":. c #CCB6BC",
">. c #CEB8BB",
",. c #D2BBB3",
"<. c #D5BDBC",
"1. c #BAC6B6",
"2. c #BBC6BE",
"3. c #C7D980",
"4. c #CBDB85",
"5. c #CFD28B",
"6. c #CCDC8B",
"7. c #D0DE87",
"8. c #CFDE92",
"9. c #D0DF92",
"0. c #D2DE9B",
"q. c #D1E094",
"w. c #D9E494",
"e. c #D5E29D",
"r. c #D2CEAD",
"t. c #CED9AF",
"y. c #D3D7A7",
"u. c #D3DBA3",
"i. c #D6D3AD",
"p. c #D7DDAA",
"a. c #D8D8AF",
"s. c #CEC1B4",
"d. c #C5CFB7",
"f. c #D0C4B5",
"g. c #D0C9B1",
"h. c #D3C4BB",
"j. c #D7CDBF",
"k. c #DADDB2",
"l. c #DDDFB9",
"z. c #D7E1A7",
"x. c #DBE5AD",
"c. c #DBE4B3",
"v. c #DFEAB7",
"b. c #DEE5BC",
"n. c #E1EABD",
"m. c #BDC7C0",
"M. c #C2CCC3",
"N. c #D8CEC0",
"B. c #D8CEC9",
"V. c #CDD4C4",
"C. c #CDD5CB",
"Z. c #D8D0C0",
"A. c #DBD5CE",
"S. c #E1D5CB",
"D. c #E4D9CF",
"F. c #DBE0D5",
"G. c #E2E5C4",
"H. c #E3E9C2",
"J. c #E6E5CF",
"K. c #E6EBCC",
"L. c #E8ECCE",
"P. c #E8F2C9",
"I. c #E5E6D1",
"U. c #E5E9D1",
"Y. c #EAEDD3",
"T. c #EAEADF",
"R. c #EEF1DD",
/* pixels */
"n n n n n n n n n n n n n n n n n n n n n n n n n n n n n n n n n n n n n n n n n n n n n n n n ",
"n n n n n n n n n n n n n n n n n n n n n n n n n n n n n n n n n n n n n n n n n n n n n n n n ",
"n n n n n n n n n n n n n n n n n n n n n n n n n n n n n n n n n n n n n n n n n n n n n n n n ",
"n n n n n n n n n n n n n n n n n n n n n n n n n n n n n n n n n n n n n n n n n n n n n n n n ",
"n n n n n n n n n n n n n n n n n n n n n n n n n n n n n n n n n n n n n n n n n n n n n n n n ",
"n n x x x x x x x x n n n n n n n n n n n n n n n n n n n n n n n n n n n n n n n n n n n n n n ",
"n n x k k x x k k x n n n n n n n n n n n n n n n n n n n n n n n n n n n n n n n n n n n n n n ",
"n n x k j l l j k x n n n n n n n n n n n n n n n n n n n n n n n n n n n n n n n n n n n n n n ",
"n n x x l j j l x x n n n n n n n n n n n n n n n n n n 4.9.9.9.9.8.6.m n n n n n n n n n n n n ",
"n n n n x k k x n n n n n n n n n n n n n n n n n n n 4.c.K.K.K.K.K.n.8.n n n n n n n n n n n n ",
"n n n n x x x x n n n n n n n n n n n n m 8.e.e.e.e.e.u.d.2.m.2.M.F.Y.e.n n n n n n n n n n n n ",
"n n n n n n n n n n n n n n n n n n n n 6.H.Y.U.Y.Y.Y.V._ P P L T 2.U.e.n x x x x x x x n n n n ",
"n n n n n n n n n n n n n n n n n n n n 8.L.A.=.B.T.C.| Y d d p K  .K.e.v k k x x k k x n n n n ",
"n n n n n n n n n n n n n n n n n m M 3.e.L.=.V ' V.[ L I R R d K  .K.e.v k j l l j k x n n n n ",
"n n n n n n n n n n n n n n n n m e.v.n.P.R.=.2 7 ) Y d h R ( g K  .U.e.n x l j j l x x n n n n ",
"n n n n n n n n n n n n n n n m 6.k.S.S.D.S.} 2 o + s f f f I U E 1.b.q.n n x k k x n n n n n n ",
"n n n n n n n n n n n n b b n e.l.%.~ ~ ~ ~ y   X . a a a a s ) 1.t.8.M n n x x x x n n n n n n ",
"n n n n n n n n n n n n n m 8.a.<.~ 9 8 9 8 = % O @ # # # @ # { I.x.m n n n n n n n n n n n n n ",
"n n n n n n n n n n n n n 9.b.&.Q u t t t t 9 = * 3 4 5 5 4 4 ] J.x.m n n n n n n n n n n n n n ",
"n n n n n n n n n n n m 8.i.,.@.t i ..J i i t 9 9 8 9 e e 9 9 Q %.i.0.3.n n n n n n n n n n n n ",
"n n n n n n n n n n n 6.H.h.W t i o.+.J i i i i t 9 9 9 e 9 9 9 D -.G.e.n n n n n n n n n n n n ",
"n n n n n n n n n n n 8.L.<.A 9 i X.o.J J o.X.F t r 9 9 9 e 9 , > #.I.e.n n n n n n n n n n n n ",
"n n n n n n n n n n n 8.K.<.D 9 i F i i J O.O.G t r 9 9 9 e 9 - : #.J.e.n n n n n n n n n n n n ",
"n n n n n n n n n n n 8.K.<.D 9 i i i i J ..J i t r 9 9 9 e 9 - : *.J.e.n n n n n n n n n n n n ",
"n n n n n n n n n n n 8.K.<.Z 8 i i i i i i i i t r 9 9 9 r 9 - : *.I.z.n n n n n n n n n n n n ",
"n n n n n n n n n n n 8.K.>.C < i i i i i i u t r e 9 9 9 r 9 - : #.I.e.n n n n n b b n n b b n ",
"n n n n n n n n n n n 4.c.f.^ A w t u i i u t r 9 9 9 9 r 9 < q ! ;.c.6.n n n n n x x n n z b n ",
"n n n n n n n n n n n n 4.u.j.] 6 < r r r r r 9 9 9 9 9 9 < ; ^ h.p.6.n n n n n n N N n n c N m ",
"n n n n n n n n n n n n n 6.x.s./ C < 9 e e 9 < < 9 r 9 < q ^ %.k.9.n n n n b b N w.w.m m 5.w.N ",
"n n n n n n n n n n n n n n 3.p.Z./ 6 < 9 9 8 > 1 9 9 8 > ! h.k.6.n n n n n b b N w.w.4.4.w.w.N ",
"n n n n n n n n n n n n n n n 6.p.s.] C & - S ` H ; $ 0 ^ ;.p.9.n n n n n n n n n m 7.w.w.7.m n ",
"n n n n n n n n n n n n n n n n 3.x.j.^ B B ] N.$.C > ! h.c.6.n n n n n n n n n x x m w.w.m x x ",
"n n n n n n n n n n n n n n n n n 6.u.f.:.>.g.u.r.>.:.s.y.6.n n n n n n n n n n n x n N N n x n ",
"n n n n n n n n n n n n n n n n n n 4.c.K.K.z.3.0.H.K.b.6.n n n n n n n n n n n n n n x x n n n ",
"n n n n n n n n n n n n n n n n n n n 4.8.8.3.n M 6.q.6.m n n n n n n n n n n n n n n b b n n n ",
"n n n n n b b n n b b n n n n n n n n n n n n n n n n n n n n n n n n n n n n n n n n n n n n n ",
"n n n n n x x n n x x n n n n n n n n n n n n n n n n n n n n n n n n n n n n n n n n n n n n n ",
"n n n n n N N n n N N n n n n n n n n n n n n n n n n n n n n n n n n n n n n n n n n n n n n n ",
"n n b x N w.w.m m w.w.N x b n n n n n n n n n n n n n n n n n n n n n n n n n n n n n n n n n n ",
"n n b x N w.w.4.4.w.w.N x b n n n n n n n n n n n n n n n n n n n n n n n n n n n n n n n n n n ",
"n n n n n m 7.w.w.7.N n n n n n n n n n n n n n n n n n n n n n n n n n n n n n n n n n n n n n ",
"n n n n x x m w.w.m b b n n n n n n n n n n n n n n n n n n n n n n n n n n n n n n n n n n n n ",
"n n n n n x n N N n x n n n n n n n n n n n n n n n n n n n n n n n n n n n n n n n n n n n n n ",
"n n n n n n n x x n n n n n n n n n n n n n n n n n n n n n n n n n n n n n n n n n n n n n n n ",
"n n n n n n n b b n n n n n n n n n n n n n n n n n n n n n n n n n n n n n n n n n n n n n n n ",
"n n n n n n n n n n n n n n n n n n n n n n n n n n n n n n n n n n n n n n n n n n n n n n n n ",
"n n n n n n n n n n n n n n n n n n n n n n n n n n n n n n n n n n n n n n n n n n n n n n n n ",
"n n n n n n n n n n n n n n n n n n n n n n n n n n n n n n n n n n n n n n n n n n n n n n n n "
};
