/* XPM */
static char *_7ad1d16d01a4c93e9b44d1b1db637e09l3PL50H4OiqSEHq[] = {
/* columns rows colors chars-per-pixel */
"48 48 215 2 ",
"   c #1A040B",
".  c #1E0910",
"X  c #200A0E",
"o  c #220B11",
"O  c #261014",
"+  c #2C1414",
"@  c #2C141A",
"#  c #2E181B",
"$  c #321716",
"%  c #341917",
"&  c #381D17",
"*  c #361B19",
"=  c #3A1E1A",
"-  c #3E211B",
";  c #2F1921",
":  c #361E24",
">  c #3C2223",
",  c #3B222C",
"<  c #42241D",
"1  c #442622",
"2  c #462A24",
"3  c #4B2B22",
"4  c #472A2B",
"5  c #442A2C",
"6  c #512F25",
"7  c #4B3625",
"8  c #4A3627",
"9  c #533127",
"0  c #523828",
"q  c #442935",
"w  c #452A34",
"e  c #4A2D34",
"r  c #492E39",
"t  c #4C3935",
"y  c #4D323C",
"u  c #553C34",
"i  c #53353C",
"p  c #594A3B",
"a  c #635B3F",
"s  c #523542",
"d  c #553944",
"f  c #593C45",
"g  c #573948",
"h  c #5C3E4C",
"j  c #594344",
"k  c #5B4546",
"l  c #5D424C",
"z  c #5F4150",
"x  c #664945",
"c  c #644B46",
"v  c #61464C",
"b  c #644B4D",
"n  c #68564B",
"m  c #7A5649",
"M  c #634452",
"N  c #684D54",
"B  c #6B4D5A",
"V  c #6B5255",
"C  c #6F5E54",
"Z  c #6E545B",
"A  c #715650",
"S  c #72545B",
"D  c #735C5D",
"F  c #6E6B48",
"G  c #78774B",
"H  c #74635C",
"J  c #786858",
"K  c #7C7257",
"L  c #735462",
"P  c #765C62",
"I  c #795C64",
"U  c #7B5E69",
"Y  c #7C6263",
"T  c #7D6567",
"R  c #83655D",
"E  c #806D5F",
"W  c #82775F",
"Q  c #856A64",
"!  c #866867",
"~  c #85656F",
"^  c #866C6C",
"/  c #88776B",
"(  c #937060",
")  c #8B6B73",
"_  c #8A7771",
"`  c #8C7472",
"'  c #8F7079",
"]  c #927A73",
"[  c #957B76",
"{  c #94747B",
"}  c #9A7C7C",
"|  c #A07E7A",
" . c #85894D",
".. c #878952",
"X. c #898C54",
"o. c #88805E",
"O. c #8D8D5B",
"+. c #8F9259",
"@. c #91925E",
"#. c #959C5A",
"$. c #9BA45D",
"%. c #9FAA5D",
"&. c #A1AC5D",
"*. c #8C8764",
"=. c #928B69",
"-. c #989666",
";. c #9E9B6D",
":. c #9C837E",
">. c #9C8C78",
",. c #9E9A71",
"<. c #9E907F",
"1. c #A4966F",
"2. c #A68679",
"3. c #A59A7D",
"4. c #9FAC63",
"5. c #A2AB64",
"6. c #A2A769",
"7. c #A5B163",
"8. c #A9B664",
"9. c #A9B668",
"0. c #ABB36C",
"q. c #AEB96C",
"w. c #B0BA6F",
"e. c #ACAC7A",
"r. c #B1AD7C",
"t. c #AEB773",
"y. c #B3BE71",
"u. c #B7BB7B",
"i. c #ADC867",
"p. c #ACC368",
"a. c #AFC968",
"s. c #B4C46B",
"d. c #B6CB6B",
"f. c #BACC6E",
"g. c #BDD26E",
"h. c #B5C173",
"j. c #BAC574",
"k. c #BCCC72",
"l. c #BDC67E",
"z. c #BFD370",
"x. c #C0D46F",
"c. c #C2CC7E",
"v. c #C0D470",
"b. c #C2D278",
"n. c #C7D97B",
"m. c #C8D97B",
"M. c #9D7D82",
"N. c #9D8684",
"B. c #A28384",
"V. c #A58B86",
"C. c #A88C86",
"Z. c #A58D8A",
"A. c #AB8C8B",
"S. c #B08F8E",
"D. c #A7908E",
"F. c #AD918D",
"G. c #B69485",
"H. c #B3948C",
"J. c #A99590",
"K. c #B49492",
"L. c #B69B94",
"P. c #BB9C92",
"I. c #BD9D99",
"U. c #ABA384",
"Y. c #B7A688",
"T. c #B8A095",
"R. c #BEA29B",
"E. c #BCB096",
"W. c #C39F91",
"Q. c #C0B48F",
"!. c #C7A797",
"~. c #CAA694",
"^. c #C2A39D",
"/. c #C8B499",
"(. c #D6B29D",
"). c #C4AAA2",
"_. c #CBABA3",
"`. c #D0AFA7",
"'. c #C7B6A8",
"]. c #CEB4AA",
"[. c #D2B2A5",
"{. c #DAB8A4",
"}. c #D4B5AA",
"|. c #DBBBAD",
" X c #CFBFB0",
".X c #D6BCB1",
"XX c #DDBEB1",
"oX c #E3BEA7",
"OX c #E2BFAD",
"+X c #BDC183",
"@X c #CFDD86",
"#X c #CBD589",
"$X c #D0DE87",
"%X c #D2DD8E",
"&X c #D4DF90",
"*X c #D7E193",
"=X c #D9E495",
"-X c #DCC4AF",
";X c #DDC2B4",
":X c #DAC6BA",
">X c #E9C4AB",
",X c #EFC8AF",
"<X c #E3C4B4",
"1X c #EECAB3",
"2X c #E4C6B8",
"3X c #E6CABB",
"4X c #EACDBD",
"5X c #F1C9B1",
"6X c #ECD4BE",
"7X c #DDCAC2",
"8X c #EED4C5",
"9X c #EBD5C8",
"0X c #EED7CA",
"qX c #F5D7C3",
"wX c #F5DDCC",
/* pixels */
"v.v.v.v.v.v.v.v.v.v.v.v.v.v.v.v.v.v.v.v.v.v.v.v.v.v.v.v.v.v.v.v.v.v.v.v.v.v.v.v.v.v.v.v.v.v.v.v.",
"v.v.v.v.v.v.v.v.v.v.v.v.v.v.v.v.v.v.v.v.v.v.v.v.v.v.v.v.v.v.v.v.v.v.v.v.v.v.v.v.v.v.v.v.v.v.v.v.",
"v.v.v.v.v.v.v.v.v.v.v.v.v.v.v.v.v.v.v.v.v.v.v.v.v.v.v.v.v.v.v.v.v.v.v.v.v.v.v.v.v.v.v.v.v.v.v.v.",
"v.v.v.v.v.v.v.v.v.v.v.v.v.v.v.v.v.v.v.v.v.v.v.v.v.v.v.v.v.v.v.v.v.v.v.v.v.v.v.v.v.v.v.v.v.v.v.v.",
"v.v.v.v.v.v.v.v.v.v.v.v.v.v.v.v.v.v.v.v.v.g.f.f.f.f.k.k.g.v.v.v.v.v.v.v.v.v.v.v.v.v.v.v.v.v.v.v.",
"v.v.g.g.g.g.g.g.g.g.v.v.v.v.v.v.g.z.g.f.d.9.;.,.3.Y.E.U.q.s.s.f.g.v.v.v.v.v.v.v.v.v.v.v.v.v.v.v.",
"v.v.g.a.a.g.g.a.a.g.v.v.v.v.g.f.h.u.t.#.G E A.I..X8X3XD.-.;.>.,.0.f.v.v.v.v.v.v.v.v.v.v.v.v.v.v.",
"v.v.g.a.i.d.d.i.a.g.v.v.v.g.y.U.'.:X).^ e ! ;X<X<X<X<X} n U..XI.` @.s.v.v.v.v.v.v.v.v.v.v.v.v.v.",
"v.v.g.g.d.i.i.d.g.g.v.v.g.q.U.7X0X4X<X^.S H |.<X<X<X;X` j L.4X_.P H e.j.g.v.v.v.v.v.v.v.v.v.v.v.",
"z.v.v.v.g.a.a.g.v.v.v.g.w.*.] ;X<X<X<XXX} Y !.<XXXXX|.^ P ].2XB.V T.:XQ.0.d.v.v.v.v.v.v.v.v.v.v.",
"v.v.v.v.g.g.g.g.v.v.f.y.Q.^.^ ] |.<X<X|.C.V 2.}.`._._.! ` .X_.Y N.:X<X|.:.O.s.v.v.v.v.v.v.v.v.v.",
"v.v.v.v.v.v.v.v.g.s.6.Y.|.<XR.Y C.|._.K.~ d V B.} { ) l Z A.^ ` ].2X<X}.' j X.d.g.g.g.g.v.v.v.v.",
"v.v.v.v.v.v.v.v.s.;.L.|.<X<X;XC.D } { L M y e h h h s r g M g ^ }.<X|.} l Y ] 6.d.a.a.g.v.v.v.v.",
"v.v.v.v.v.v.z.s.;.L.;XOX|.<XXXL.Z y l z h d w w r w 5 y h h s d } _.C.v T }._.>.7.i.a.g.v.v.v.v.",
"v.v.v.v.v.v.f.-.C.XX<X<X<XXXI.' B w w f d e * * * * * > y f r r M U N ` [.<X<XF.=.p.g.g.v.v.v.v.",
"v.v.v.v.v.v.s.G P.2X<X<XXXR.{ L M s 5 4 2 = * < < < < $ = 2 5 g l g P ].2X<X<X_.T #.g.v.v.v.v.v.",
"v.v.v.v.v.g.%.p ! P.|.;X^.{ L M h i 1 - - = * < < < < $ % < 2 i l ~ H.].;X;X_.} y a 8.z.v.v.v.v.",
"v.v.v.v.v.f.,._ b V ] A.' L M h i 1 = - = = * < < < < $ * < < 1 f { [.[.^.B.D j D / o.8.g.v.v.v.",
"v.v.z.v.g.h.'.9X).:.Y l f h h i 2 = = - = = = - < < < $ * < < < 4 S P.OXG.b D J.:X].^ G s.z.v.v.",
"v.v.v.v.g.t. X2X<X4X_.V , w w 2 - * = - = = = = - < < % $ - - - < e ! W.2.! :X8X2X.XN.x $.g.v.v.",
"v.v.v.v.k.e.:X<X<X<X_.T g w @ * < * * < - = = - < < < % $ - - - < * r b x ] 3X2X<X<XL.b X.f.v.v.",
"v.v.v.v.f.3..X;X<XXXA.Z h y O * < = = < < = = < < < - $ $ - - - < + O i [ !.3X2X|.<X^.V  .f.v.v.",
"v.v.v.g.q.J ] :.H.H.~ M h , o * < = = < < - = < < - - $ * < = - < # X ! oX5X4X4X|.<X_.I +.f.v.v.",
"v.v.v.z.h.<.N.} :.^ l y w @ X * - = - < < - = < < < - $ = < = - < #   R oX5X1X8X<X<X_.Y ..f.v.v.",
"v.v.v.v.#X4X3X:X.XF.v r , . X & - = = < < - = < < - - % = < = - < +   j W.(.(.:X_.H.} N G f.v.v.",
"v.v.v.v.c.-X<X<X<X_.I h w . X = 2 2 - < < - = < < - < % % < - < < +   # x R R ^ D f e p #.g.x.v.",
"v.v.v.v.k./.XX<X<X).I h r o X - u t - < < - = - < - < $ $ - < < < +   > R 2.2.Z.} Y n a &.g.g.v.",
"v.v.v.v.k.e.A.^.}.I.L g w . X - 8 2 - < < - = - - - < $ $ - < < < #   x (.5XqXwX2X}.P.D ..b.m.v.",
"v.v.v.v.z.q.K Z ~ Y h 5 : . X = - - = < < - * = = = - % % < < < < + o ! oX1XwXwX2X<X^.S O.%X=Xm.",
"v.v.v.v.v.f.$./ Z.N.L d r ; X = - = = < < - * - = = = % = < < < < + O 2.>X1XwX8X<X[.A.V 6.*X=Xm.",
"v.v.v.v.v.v.f.u..X.XV.L h w o * < - - < < = = < - = - % = < < < < O @ 2.>X1XwX3X[.K.{ J +X@Xn.v.",
"v.v.v.v.v.v.z.j./.;XR.~ M y O * < - = - - = = < - = < % = < < < - X : G.,X6XwX.XS.{ T ,.%Xn.g.g.",
"v.v.v.v.v.v.v.f.r.[.}.M.M y @ % < = = = - = = < - - < = - < < 1 < # A ~.~.T.).I.{ T *.j.n.v.g.x.",
"v.v.v.v.v.v.v.f.;.:.B.I y s w > < = = = < - * - < 3 3 < < 3 3 3 2 x ~.>XG.b j b B H 4.g.g.z.v.v.",
"v.v.v.v.v.v.v.f.O.d k D Z h f e < - = - < - % - 3 9 3 < 2 3 3 6 u 2.>X>XH.Z.} v 5 G s.g.x.v.v.v.",
"v.v.v.v.v.x.x.g.8.F H F.K.B h d 4 - = < < - * < 3 9 9 < 1 3 3 9 ( {.5XP.R.;X|.{ J 7.g.v.v.v.v.v.",
"v.v.v.v.v.g.g.v.f.+.I B.I.) h h i 1 & < < - = < 3 3 3 - 3 6 3 m ~.1X~.A..X<X_.{ =.f.v.v.v.v.v.v.",
"v.v.v.v.v.m.m.v.v.h.W U } { M h h e # * 2 8 8 0 0 0 0 8 8 8 8 [ >X{.[ ).2X[.V.=.9.g.v.v.v.v.v.v.",
"v.v.x.g.m.=X*Xn.n.*X+XJ U ) S d l h y t  .&.%.&.&.&.&.&.%.&.#.Y.{.| D.:X}.B.-.s.g.v.v.v.v.v.v.v.",
"v.v.x.g.m.=X=X@X@X=X&X6.C P P k b Z V X.d.v.z.z.z.z.z.z.z.v.g.j.1.] '.}.C.-.s.v.v.v.v.v.v.v.v.v.",
"v.v.v.v.v.n.$X=X=X$Xn.k.5.-.6.7.7.5.5.s.v.v.v.v.v.v.v.v.v.v.v.z.s.y.l.u.0.s.g.v.v.v.v.v.v.v.v.v.",
"v.v.v.v.g.g.n.=X=Xn.g.g.g.f.g.z.g.g.g.z.v.v.v.v.v.v.v.v.v.v.v.v.v.z.z.g.g.v.v.v.v.v.v.v.v.v.v.v.",
"v.v.v.v.v.g.v.m.m.v.g.v.v.v.v.v.v.v.v.v.v.v.v.v.v.v.v.v.v.v.v.v.v.v.v.v.v.v.v.v.v.v.v.v.v.v.v.v.",
"v.v.v.v.v.v.v.g.g.v.v.v.v.v.v.v.v.v.v.v.v.v.v.v.v.v.v.v.v.v.v.v.v.v.v.v.v.v.v.v.v.v.v.v.v.v.v.v.",
"v.v.v.v.v.v.v.x.x.v.v.v.v.v.v.v.v.v.v.v.v.v.v.v.v.v.v.v.v.v.v.v.v.v.v.v.v.v.v.v.v.v.v.v.v.v.v.v.",
"v.v.v.v.v.v.v.v.v.v.v.v.v.v.v.v.v.v.v.v.v.v.v.v.v.v.v.v.v.v.v.v.v.v.v.v.v.v.v.v.v.v.v.v.v.v.v.v.",
"v.v.v.v.v.v.v.v.v.v.v.v.v.v.v.v.v.v.v.v.v.v.v.v.v.v.v.v.v.v.v.v.v.v.v.v.v.v.v.v.v.v.v.v.v.v.v.v.",
"v.v.v.v.v.v.v.v.v.v.v.v.v.v.v.v.v.v.v.v.v.v.v.v.v.v.v.v.v.v.v.v.v.v.v.v.v.v.v.v.v.v.v.v.v.v.v.v."
};
