/* XPM */
static char *_939b37dab154bc8a891fb63ce6c7f87Cqepya2YOdoKS9it[] = {
/* columns rows colors chars-per-pixel */
"48 48 216 2 ",
"   c #2F1927",
".  c #352031",
"X  c #422931",
"o  c #4B333A",
"O  c #594A3B",
"+  c #635B3F",
"@  c #3E2D50",
"#  c #48324D",
"$  c #573B47",
"%  c #5A3F56",
"&  c #523C63",
"*  c #4F3D71",
"=  c #5B4349",
"-  c #5A4157",
";  c #624B4C",
":  c #67564C",
">  c #664B5A",
",  c #6B5458",
"<  c #72545E",
"1  c #735D5E",
"2  c #6E6B48",
"3  c #78774B",
"4  c #766759",
"5  c #7C7257",
"6  c #594268",
"7  c #4F407D",
"8  c #574578",
"9  c #54437E",
"0  c #765B64",
"q  c #765A66",
"w  c #695476",
"e  c #7D6465",
"r  c #6D6677",
"t  c #786476",
"y  c #81725F",
"u  c #83686B",
"i  c #867A6A",
"p  c #856877",
"a  c #8D7771",
"s  c #947C77",
"d  c #95757C",
"f  c #997B7B",
"g  c #898A56",
"h  c #8F9259",
"j  c #949D5A",
"k  c #9CA65D",
"l  c #A1AD5F",
"z  c #88876E",
"x  c #928B69",
"c  c #969666",
"v  c #9E9B6D",
"b  c #9B867C",
"n  c #9E9975",
"m  c #A49878",
"M  c #9EA965",
"N  c #A2A868",
"B  c #AAB568",
"V  c #A9AE76",
"C  c #B1AD7C",
"Z  c #A5B077",
"A  c #ACB473",
"S  c #AEBB75",
"D  c #B6BD77",
"F  c #ADC867",
"G  c #ACC368",
"H  c #AFC968",
"J  c #B4C36B",
"K  c #B6CC6B",
"L  c #BACC6E",
"P  c #BDD26E",
"I  c #B8C375",
"U  c #BCCD71",
"Y  c #BFD370",
"T  c #C0D46F",
"R  c #C2CC7E",
"E  c #C0D470",
"W  c #C2D278",
"Q  c #C7D97B",
"!  c #C8D97B",
"~  c #EDE478",
"^  c #554582",
"/  c #5B4B85",
"(  c #55468B",
")  c #5C4D8C",
"_  c #5C4D91",
"`  c #675688",
"'  c #6D5D8B",
"]  c #6B5A92",
"[  c #715E94",
"{  c #6E6789",
"}  c #79658A",
"|  c #7B7287",
" . c #726293",
".. c #7A6995",
"X. c #7A6699",
"o. c #7C6A9B",
"O. c #7E7396",
"+. c #7D729D",
"@. c #6E64A9",
"#. c #746BA6",
"$. c #7A6DA4",
"%. c #7067AA",
"&. c #7970AB",
"*. c #856B85",
"=. c #8D778C",
"-. c #977B83",
";. c #80759D",
":. c #89799A",
">. c #8778A2",
",. c #848582",
"<. c #9C8688",
"1. c #9C9389",
"2. c #9A819D",
"3. c #A38987",
"4. c #AA8C8B",
"5. c #A7908E",
"6. c #AD918D",
"7. c #B2938D",
"8. c #A68A94",
"9. c #AB9394",
"0. c #B89A97",
"q. c #ACA288",
"w. c #B6A88B",
"e. c #BDA29C",
"r. c #BCB096",
"t. c #8B82A9",
"y. c #9482A5",
"u. c #968DA4",
"i. c #918AAE",
"p. c #988FAC",
"a. c #9A91A5",
"s. c #938CB0",
"d. c #AB8FA1",
"f. c #AD97A4",
"g. c #B39AA5",
"h. c #A599B9",
"j. c #A599BA",
"k. c #B9A6AA",
"l. c #B6ADAB",
"z. c #ACA6B2",
"x. c #B9B4B4",
"c. c #C3A39D",
"v. c #C8B499",
"b. c #C499A5",
"n. c #C3AAA2",
"m. c #CBABA3",
"M. c #C3A6AA",
"N. c #C5A5A8",
"B. c #CBAFAC",
"V. c #C7B5A8",
"C. c #D2B2A7",
"Z. c #D4B6AB",
"A. c #D8B7AC",
"S. c #DBBBAD",
"D. c #CDB8B5",
"F. c #D5B7B0",
"G. c #D5BCB1",
"H. c #DDBDB1",
"J. c #EAB4AC",
"K. c #E0BEAE",
"L. c #BDC183",
"P. c #CDDA87",
"I. c #D4D28C",
"U. c #D1DE89",
"Y. c #E6DE86",
"T. c #D7E193",
"R. c #D9E495",
"E. c #EEE785",
"W. c #EFE991",
"Q. c #DCC4AF",
"!. c #D9D5AD",
"~. c #CEC3B4",
"^. c #CECAB5",
"/. c #CAC5BB",
"(. c #DEC2B3",
"). c #D4CBB8",
"_. c #D6D2B7",
"`. c #D9D6B7",
"'. c #D4D2BB",
"]. c #D8D5B8",
"[. c #DEDBB8",
"{. c #E3C3B4",
"}. c #EDC5B1",
"|. c #EFCCB3",
" X c #E8CBB7",
".X c #E5CABB",
"XX c #E2DBBD",
"oX c #F4F1AA",
"OX c #E9E7BD",
"+X c #EDEBBE",
"@X c #F2E6BC",
"#X c #F6ECBE",
"$X c #F5F2B3",
"%X c #F4F3BF",
"&X c #BEB4CC",
"*X c #C2BAC6",
"=X c #CCC5CA",
"-X c #DDD5DF",
";X c #E7CEC2",
":X c #EED6C9",
">X c #F5D7C3",
",X c #F5DDCC",
"<X c #E2DCD7",
"1X c #E5DFD8",
"2X c #E7E5C4",
"3X c #EEECC6",
"4X c #EFEDC8",
"5X c #FAE6C5",
"6X c #F5F4C1",
"7X c #F9F4C2",
"8X c #F8F7C6",
"9X c #F4F2CA",
"0X c #E6E1D1",
"qX c #EBE5DB",
"wX c #DFD7E0",
"eX c #E0D8E0",
/* pixels */
"E E E E E E E E E E E E E E E E E E E E E E E E E E E E E E E E E E E E E E E E E E E E E E E E ",
"E E E E E E E E E E E E E E E E E E E E E E E E E E E E E E E E E E E E E E E E E E E E E E E E ",
"E E E E E E E E E E E E E E E E E E E E E E E E E E E E E E E E E E E E E E E E E E E E E E E E ",
"E E E E E E E E E E E E E E E E E E E E T T T E E E E E E E E E E E E E E E E E E E E E E E E E ",
"E E E E E E E E E E E E E T E E E E E E E P L L L L U U P E E E E E E E E E T E E E E E E E E E ",
"E E P P P P P P P P E E T E T E P Y P L K B v v m w.r.q.B J J L P E E E E E T Y E E E E E E E E ",
"E E P H H P P H H P E E T T P L I D A j 3 y 4.0.F.;X.X5.c v b n B L E E E E E E E E E E E E E E ",
"E E P H F K K F H P E E E P A 1.f.k.d.t # u (.{.{.{.{.f : 1.g.8.t i Z U E E E E E E E E E E E E ",
"E E P P K F F K P P E E P B 1.y.o.X.X.[ w 0 S.{.{.{.(.a - O.X. ./ / | V P E E E E E E E E E E E ",
"Y E E E P H H P E E E P A i *.t.;.;.;.;.;.t 0.H.H.H.Z.p t :.;.;.;.;.t.1.n J E E E E E E E E E E ",
"E E E E P P P P E E L D q.:.O.l.^.^.^.^.l...} M.C.m.0.w O.l.^.^.^.^.x.:.} z J E E E E E E E E E ",
"E E E E E E E E P J N w.k.X.;.~.#X#X#X7X^.+./ } *.p t ^ +.^.7X#X#X#X~.+.` - g K P P P P E E E E ",
"E E E E E E E E J v 0.S.k.X.o.N.|.}.|.#X^.+.( ^ 9 9 ^ ( +.^.#X|.}.|.N.o./ 0 a N K H H P E E E E ",
"E E E E E E Y J v 0.(.K.g.X.X.b.J.J.}.@X'.p.$.$.$.$.$.$.p.'.@X}.J.J.b.X.` g.m.b B F H P E E E E ",
"E E E E E E L c 3.H.{.{.M.X.X.b.J.J.}.@X2X=X&X&X&X&X&X&X=X2X@X}.J.J.b.X. .M.{.6.x G P P E E E E ",
"E E E E E E J 3 0. X{.{.k.[ o.N.}.}.|.@X4X1XeXeXeXeXeXeX0X4X@X|.}.}.N.o.X.M.{.m.e j P E E E E E ",
"E E E E Y P k O u 0.S.(.8.` +.D.@X@X@X#X4X1XwXwX-X-XwXwX1X4X#X@X@X@XD.O.X.k.m.f o + B Y E E E E ",
"E E E E Y U n a ; : s 4.p / ;.^.8X8X8X%X3X<X-X-X-X-X-X-X<X3X%X8X8X8X^.;. .=.1 = 1 i g B P E E E ",
"E E E E P I V.;Xn.<.e = % ^ ;.^.8X8X6X%X3X<X-X-X-X-X-X-X<X3X%X6X8X8X^.;.' > 1 9.).Z.u 3 J Y T T ",
"E E Y Y P S G. X X.Xn.> # ^ ;.^.8X8X8X6X3X0X<X<X<X<X<X<X0X3X6X8X8X8X^.;.` r x.;X XH.<.; k P T T ",
"E E E E U C (.{.{.{.0.` / ( ;.^.8X8X8X%X6X3X3X3X3X3X3X3X3X6X6X8X7X8X^.;.) ` y.B.{.{.0.; g L T T ",
"E E E E L m G.{.{.H.<.w / ( ;.^.+X_._.OX6X6X%X%X%X%X%X%X6X6XOX_.'.+X^.;._ ] y.D.S.{.c., g L T T ",
"E E E P B 4 a b 7.7.p > 6 9 ;.^._.a.u._.8X8X%X%X%X%X6X6X8X8X_.u.a.].^.;.[ f.G..XA.{.m.0 h L T T ",
"E E E Y I 1.<.s b u = $ & * ;.^._.a.u._.8X8X%X%X6X%X6X6X8X8X_.u.a.].^.;.[ f.F.;X{.{.m.e g L T T ",
"E E E E P..X.X(.F.6.> * ^ ( ;.^.+X_._.OX%X6X6X6X6X6X%X%X%X%XOX_._.+X^.;._ ] :.B.m.7.f > 3 L E E ",
"E E E E R Q.{.{.{.m.0 8 ^ ( ;.~.7X7X7X6X%X8X8X8X8X8X%X6X%X%X6X6X7X7X~.;._ ) w t 1 $ o O j P T E ",
"E E E E U v.H.{.{.n.0 - & 7 ;.D.5X5X5X6X%X%X8X8X8X8X8X8X8X8X6X5X5X5XD.;.) *.-.3.s e : + l P P E ",
"E E E E U C 4.c.Z.0.0 $ # @ ' g.D.D.D.).'.'.'.'.'.'.'.'.'.'.).D.D.D.f.} :.A.>X,X{.Z.0.1 g W ! E ",
"E E E E Y B 5 < u e $ X .   # ' o.o.>.t.s.s.s.i.s.i.i.i.s.s.t.>.o.o.` p m.}.,X,X{.{.c.< g U.R.! ",
"E E E E E P k i 3.<.0 $ o . @ ` $.+.+.#.%.%.$.t.u.i.t.&.%.%.#.+.+.$.` =.C.}.,X:X{.C.4., N T.R.! ",
"E E E E E E L D G.G.3.0 - & ` h.*X/.x.t.@.@.>.w.I.!.x.t.@.@.t.x./.*Xh.;.2.F.,X.XC.7.d 4 L.U.Q E ",
"E E E E E E Y I v.Q.e.u 6 9 $.&XqX9XXXz.s.s.f.I.E.oX!.z.i.i.z.XX9XqX&X$.X.B.,XH.6.d e n U.Q P P ",
"E E E E E E E L C C.Z.-.6 9 $.&XqX9X%X[.'.'.!.Y.~ E.W.!.'.'.[.%X9XqX&X$.[ 8.n.0.d e x I Q E P P ",
"E E E E E E E L v b 3.0 # 6  .h.*X/.`.+X8X8X$XW.E.E.W.$X8X8X+X`./.*Xh.>.*.> = ; > 4 M P P P E P ",
"E E E E E E E L h $ = 1 < % 6  .$.+.a.`.7X8X%X$XoXoX$X%X8X7X`.a.+.$.>.g.3.3.f ; X 3 J P T E E E ",
"E E E E E T T P B 2 4 6.7., - 6 9 ( +./.9X9X2X'.^.^.'.2X9X9X/.+.( ] 2.6.e.(.G.d 4 B P E E E E E ",
"E E E E E P P E L h 0 3.0.p % % & 9 $.*XqXqX=Xp.+.+.p.=XqXqX*X$.] d.0.4.G.{.m.d x L E E E E E E ",
"E E E E E ! ! E E I y 0 f d > $ % & ' h.&X&Xh.' 8 8 ' h.&X&Xh.o.:.c.f n..XC.3.x B P E E E E E E ",
"E E T P ! R.T.Q Q T.L.4 0 p < $ = - 6  .$.$.O.z c c z O.$.$.O.<.c.f 5.(.Z.3.c J P E E E E E E E ",
"E E T P ! R.R.U.U.R.T.N 1 0 0 = ; < , r { { ,.S Y Y S ,.{ { ,.C v a V.Z.4.c J E E E E E E E E E ",
"E E E E E Q U.R.R.U.Q U N c N B B N M Z Z Z S U E E U S Z Z S U J D I D A J P E E E E E E E E E ",
"E E E E P P Q R.R.Q P P P L P Y P P P Y E E E E E E E E E E E E E Y Y P P E E E E E E E E E E E ",
"E E E E E P E ! ! E P E E E E E E E E E E E E E E E E E E E E E E E E E E E E E E E E E E E E E ",
"E E E E E E E P P E E E T E E E E E E E E E E E E E E E E E E E E E E E E E E E E E E E E E E E ",
"E E E E E E E T T E E E T T E E E E E E E E E E E E E E E E E E E E E E E E E E E E E E E E E E ",
"E E E E E E E E E E E E E E E E E E E E E E E E E E E E E E E E E E E E E E E E E E E E E E E E ",
"E E E E E E E E E E E E E E E E E E E E E E E E E E E E E E E E E E E E E E E E E E E E E E E E ",
"E E E E E E E E E E E E E E E E E E E E E E E E E E E E E E E E E E E E E E E E E E E E E E E E "
};
