/* XPM */
static char *_17eeb0afe06416ff1a2b682ee950b58SS8dS05H3q3HjzgN[] = {
/* columns rows colors chars-per-pixel */
"48 48 170 2 ",
"   c #858D7A",
".  c #8B8E7F",
"X  c #8D927E",
"o  c #91967D",
"O  c #949A7C",
"+  c #999F7E",
"@  c #9BA27D",
"#  c #AAB776",
"$  c #ADBB76",
"%  c #B0BF74",
"&  c #ADC867",
"*  c #ACC669",
"=  c #AFC968",
"-  c #B5CD6C",
";  c #B8CD6F",
":  c #BDD26E",
">  c #B4C475",
",  c #BACC72",
"<  c #BED271",
"1  c #C0D46F",
"2  c #C0D470",
"3  c #C7D97A",
"4  c #C8D97B",
"5  c #EBE27B",
"6  c #5A4D8F",
"7  c #5B4E90",
"8  c #5E5192",
"9  c #655A8D",
"0  c #625593",
"q  c #665992",
"w  c #695E91",
"e  c #6C5E98",
"r  c #6C6685",
"t  c #6F6A84",
"y  c #6E658E",
"u  c #6E6988",
"i  c #726D87",
"p  c #70678E",
"a  c #71698C",
"s  c #6C6291",
"d  c #6E6098",
"f  c #716595",
"g  c #726990",
"h  c #7C719C",
"j  c #695FA9",
"k  c #7067A7",
"l  c #7469A1",
"z  c #7168A9",
"x  c #7B73AB",
"c  c #96779C",
"v  c #977B9E",
"b  c #9A7C9E",
"n  c #8077AC",
"m  c #857CAB",
"M  c #888B80",
"N  c #8F9381",
"B  c #929581",
"V  c #959A80",
"C  c #989E80",
"Z  c #8D849B",
"A  c #8F8C99",
"S  c #918D97",
"D  c #928E9A",
"F  c #969292",
"G  c #989092",
"H  c #ADA492",
"J  c #B0A792",
"K  c #8C83AB",
"L  c #9A86A3",
"P  c #958CA4",
"I  c #9D8BA4",
"U  c #9286AF",
"Y  c #948AAD",
"T  c #9D8AA9",
"R  c #9C93A5",
"E  c #9F97AA",
"W  c #8D82B0",
"Q  c #9186B2",
"!  c #9489B3",
"~  c #9C92B4",
"^  c #A29AA7",
"/  c #A092A8",
"(  c #A49BAA",
")  c #A096B5",
"_  c #A59DB3",
"`  c #A7A1A9",
"'  c #ABA5AA",
"]  c #AFA9AC",
"[  c #B5AFAD",
"{  c #B9B2A8",
"}  c #ADA7B5",
"|  c #AFA9B5",
" . c #B1ACB5",
".. c #B7B2B6",
"X. c #B9B4B6",
"o. c #BEB9B5",
"O. c #DDACAA",
"+. c #DDB2AC",
"@. c #C0BCB7",
"#. c #C3BCBE",
"$. c #EAB3AB",
"%. c #ECBBAE",
"&. c #CFDE86",
"*. c #D0DE87",
"=. c #D3CC95",
"-. c #E0D780",
";. c #D9E494",
":. c #EBE483",
">. c #F3EC81",
",. c #EFE996",
"<. c #F1EC98",
"1. c #F4F09F",
"2. c #D7D2A7",
"3. c #C6C1B2",
"4. c #C8C4B8",
"5. c #D2CEB6",
"6. c #DEC6BE",
"7. c #D8D4B7",
"8. c #DFDDBB",
"9. c #E1C6B3",
"0. c #E6D0B5",
"q. c #EDD3B6",
"w. c #E2DEBB",
"e. c #F1D4B6",
"r. c #F2D9B7",
"t. c #F4DDB9",
"y. c #EDE9A0",
"u. c #F5F1A3",
"i. c #E8E5B5",
"p. c #E5E3BC",
"a. c #E9E6BD",
"s. c #ECEABE",
"d. c #F0E2B9",
"f. c #F9E2BA",
"g. c #F1EEBF",
"h. c #FBEFBF",
"j. c #F6F4B1",
"k. c #F4F3BF",
"l. c #F9F5BE",
"z. c #DFD9CE",
"x. c #CBC2D2",
"c. c #D3CBD6",
"v. c #D3CAD8",
"b. c #D8CFDA",
"n. c #DDD5DD",
"m. c #DFD8DB",
"M. c #ECD2C2",
"N. c #EBDCC0",
"B. c #E1DCD0",
"V. c #E3DCDF",
"C. c #E8E5C0",
"Z. c #E4E2CC",
"A. c #E8E3CF",
"S. c #E8E4CE",
"D. c #EEEBC8",
"F. c #F2EEC0",
"G. c #FDEFC6",
"H. c #F3F2C1",
"J. c #F4F4C1",
"K. c #F6F5C0",
"L. c #FAF5C2",
"P. c #F9FAC2",
"I. c #FAFAC3",
"U. c #E7E2D1",
"Y. c #E8E3D0",
"T. c #EBE8D0",
"R. c #F3EFD8",
"E. c #F8F5D9",
"W. c #DBD3E0",
"Q. c #E2DAE1",
/* pixels */
"2 2 2 2 2 2 2 2 2 2 2 2 2 2 2 2 2 2 2 2 2 2 2 2 2 2 2 2 2 2 2 2 2 2 2 2 2 2 2 2 2 2 2 2 2 2 2 2 ",
"2 2 2 2 2 2 2 2 2 2 2 2 2 2 2 2 2 2 2 2 2 2 2 2 2 2 2 2 2 2 2 2 2 2 2 2 2 2 2 2 2 2 2 2 2 2 2 2 ",
"2 2 2 2 2 2 2 2 2 2 2 2 2 2 2 2 2 2 2 2 2 2 2 2 2 2 2 2 2 2 2 2 2 2 2 2 2 2 2 2 2 2 2 2 2 2 2 2 ",
"2 2 2 2 2 2 2 2 2 2 2 2 2 2 2 2 2 2 2 2 2 2 2 2 2 2 2 2 2 2 2 2 2 2 2 2 2 2 2 2 2 2 2 2 2 2 2 2 ",
"2 2 2 2 2 2 2 2 2 2 2 2 2 2 2 2 2 2 2 2 2 2 2 2 2 2 2 2 2 2 2 2 2 2 2 2 2 2 2 2 2 2 2 2 2 2 2 2 ",
"2 2 : : : : : : : : 2 2 2 2 2 2 2 2 2 2 2 2 2 2 2 2 2 2 2 2 2 2 2 2 2 2 2 2 2 2 2 2 2 2 2 2 2 2 ",
"2 2 : = = : : = = : 2 2 2 2 2 2 2 2 2 2 2 2 2 2 2 2 2 2 2 2 2 2 2 2 2 2 2 2 2 2 2 2 2 2 2 2 2 2 ",
"2 2 : = & - - & = : 2 2 2 2 2 2 < < < < < < < 2 2 2 2 2 2 2 < < < < < < < 2 2 2 2 2 2 2 2 2 2 2 ",
"2 2 : : - & & - : : 2 2 2 2 2 2 $ O o O o O # < 2 2 2 2 2 2 # O o O o O $ 2 2 2 2 2 2 2 2 2 2 2 ",
"2 2 2 2 : = = : 2 2 2 2 2 2 2 , + a q w q y B , 2 2 2 2 2 , B y q w q p O , 2 2 2 2 2 2 2 2 2 2 ",
"2 2 2 2 : : : : 2 2 2 2 2 < $ @ F R R R R R F C $ 2 2 2 $ C F R R R R R F + $ < 2 2 2 2 2 2 2 2 ",
"2 2 2 2 2 2 2 2 2 2 2 2 2 < O a R 7.a.p.a.w.` g . , 2 , X g ^ 8.a.p.a.7.R a O , : : : : 2 2 2 2 ",
"2 2 2 2 2 2 2 2 2 2 2 2 2 < o q L 0.f.t.h.g.' 0 r X O X r 0 ` g.l.t.f.0.I q   ; : = = : 2 2 2 2 ",
"2 2 2 2 2 2 2 2 2 2 2 2 2 < O w v +.%.%.r.s.] e 8 w w w 8 e ' a.r.%.%.+.b 9   - - & = : 2 2 2 2 ",
"2 2 2 2 2 2 2 2 2 2 2 2 2 < O w c O.$.$.e.s.4.~ Q ! ! ! Q ~ 4.s.e.$.$.O.v w X * & - : : 2 2 2 2 ",
"2 2 2 2 2 2 2 2 2 2 2 2 2 < O w v O.%.%.q.g.Z.c.v.v.v.v.v.c.Z.F.q.%.%.O.b w X * = : 2 2 2 2 2 2 ",
"2 2 2 2 2 2 2 2 2 2 2 2 2 < O w L 9.e.q.d.F.T.V.Q.Q.Q.Q.Q.V.T.F.d.q.e.9.L w X ; : : 2 2 2 2 2 2 ",
"2 2 2 2 2 2 2 2 2 2 2 2 2 < o w R w.K.g.k.H.S.n.n.n.n.n.n.n.S.H.k.g.K.p.R w o < 2 2 2 2 2 2 2 2 ",
"2 2 2 2 2 2 2 2 2 2 2 2 2 2 O s R p.P.K.k.H.S.n.W.n.n.n.W.n.A.H.k.J.P.a.R w o 2 2 2 2 2 2 2 2 2 ",
"2 2 2 2 2 2 2 2 2 2 2 2 2 , X w R p.P.H.k.H.S.m.n.n.n.n.n.m.S.H.k.H.P.a.R w X , 2 2 2 2 2 2 2 2 ",
"2 2 2 2 2 2 2 2 2 2 2 < $ B i q R p.P.P.K.H.D.S.U.Y.Y.Y.U.S.D.H.K.P.P.a.R q a N $ < 2 2 2 2 2 2 ",
"2 2 2 2 2 2 2 2 2 2 2 < @ a 7 0 R p.K.s.s.H.H.H.H.H.H.H.H.H.H.H.s.s.K.p.^ 0 6 y @ < 2 2 2 2 2 2 ",
"2 2 2 2 2 2 2 2 2 2 2 < $ B i q R p.5.' 3.s.J.k.k.k.k.k.k.k.K.s.3.' 5.p.^ q a B $ < 2 2 2 2 2 2 ",
"2 2 2 2 2 2 2 2 2 2 2 2 < > . w R w.[ h ( a.P.H.H.H.H.H.H.H.P.a.` h [ p.^ w M > < 2 2 2 2 2 2 2 ",
"2 2 2 2 2 2 2 2 2 2 2 < $ B i q R p.5.' 3.s.K.H.H.H.H.H.H.H.J.s.3.' 5.p.^ q a B $ < 2 2 2 2 2 2 ",
"2 2 2 2 2 2 2 2 2 2 2 < @ a 7 0 R p.H.s.s.H.H.H.H.H.H.H.H.H.H.H.g.s.H.p.^ 0 6 y @ < 1 2 2 1 1 2 ",
"2 2 2 2 2 2 2 2 2 2 2 < $ B a 0 T N.L.G.L.P.K.K.K.K.K.K.J.K.P.P.L.G.L.N./ 0 u N $ : : 2 2 : : 2 ",
"2 2 2 2 2 2 2 2 2 2 2 2 2 , O y L 6.M.M.N.a.a.a.a.a.a.a.a.a.a.a.N.M.M.6.T y o , 2 4 4 2 2 4 4 2 ",
"2 2 2 2 2 2 2 2 2 2 2 2 2 2 $ + F I T T ( |  . .| | } } |  . . .( T T I G + $ : 4 ;.;.3 3 ;.;.4 ",
"2 2 2 2 2 2 2 2 2 2 2 2 2 2 < > B f e d l x x x x m m m n x x x l d e f B > < : 4 ;.;.&.&.;.;.4 ",
"2 2 2 2 2 2 2 2 2 2 2 2 2 < # B D ~ _ ( K z j k Z H {  .! z j z K ( _ ~ D B # < 2 3 *.;.;.*.3 2 ",
"2 2 2 2 2 2 2 2 2 2 2 2 2 < O y Q x.T.C.o.K x m J -.<.i...m x K X.C.T.v.Q s o < : : 3 ;.;.3 : : ",
"2 2 2 2 2 2 2 2 2 2 2 2 2 < X 0 Q n.E.P.w.@...o.=.5 >.,.2.o...o.8.P.E.n.! 0 X < 2 : 2 4 4 2 : 2 ",
"2 2 2 2 2 2 2 2 2 2 2 2 2 < + a Q x.z.p.a.s.F.s.y.:.5 :.y.s.F.s.a.p.z.x.Q p O < 2 2 2 : : 2 2 2 ",
"2 2 2 2 2 2 2 2 2 2 2 2 2 < $ + S U Y ^ 3.k.P.l.j.u.1.u.j.l.P.k.3.^ Y U D C $ < 2 2 2 1 1 2 2 2 ",
"2 2 2 2 2 1 1 2 2 1 1 2 2 2 2 , + a 8 q ^ p.L.F.a.p.p.p.a.F.L.C.( q 7 y O , 2 2 2 2 2 2 2 2 2 2 ",
"2 2 2 2 2 : : 2 2 : : 2 2 2 2 2 % O t 8 Y z.R.U.#.E P E #.U.R.B.~ 8 t O $ 2 2 2 2 2 2 2 2 2 2 2 ",
"2 2 2 2 2 4 4 2 2 4 4 2 2 2 2 2 2 , O a Y x.b.x.) f 9 s ~ x.b.x.! a o , 2 2 2 2 2 2 2 2 2 2 2 2 ",
"2 2 1 : 4 ;.;.3 3 ;.;.4 : 1 2 2 2 2 % @ S K Q W A B O B A W Q W D @ $ 2 2 2 2 2 2 2 2 2 2 2 2 2 ",
"2 2 1 : 4 ;.;.&.&.;.;.4 : 1 2 2 2 2 2 , + a q y B , 2 , V y q y V , 2 2 2 2 2 2 2 2 2 2 2 2 2 2 ",
"2 2 2 2 2 3 *.;.;.*.3 2 2 2 2 2 2 2 2 2 $ + o + $ 2 2 2 $ + o + $ 2 2 2 2 2 2 2 2 2 2 2 2 2 2 2 ",
"2 2 2 2 : : 3 ;.;.3 : : 2 2 2 2 2 2 2 2 < < < < < 2 2 2 < < < < < 2 2 2 2 2 2 2 2 2 2 2 2 2 2 2 ",
"2 2 2 2 2 : 2 4 4 2 : 2 2 2 2 2 2 2 2 2 2 2 2 2 2 2 2 2 2 2 2 2 2 2 2 2 2 2 2 2 2 2 2 2 2 2 2 2 ",
"2 2 2 2 2 2 2 : : 2 2 2 2 2 2 2 2 2 2 2 2 2 2 2 2 2 2 2 2 2 2 2 2 2 2 2 2 2 2 2 2 2 2 2 2 2 2 2 ",
"2 2 2 2 2 2 2 1 1 2 2 2 2 2 2 2 2 2 2 2 2 2 2 2 2 2 2 2 2 2 2 2 2 2 2 2 2 2 2 2 2 2 2 2 2 2 2 2 ",
"2 2 2 2 2 2 2 2 2 2 2 2 2 2 2 2 2 2 2 2 2 2 2 2 2 2 2 2 2 2 2 2 2 2 2 2 2 2 2 2 2 2 2 2 2 2 2 2 ",
"2 2 2 2 2 2 2 2 2 2 2 2 2 2 2 2 2 2 2 2 2 2 2 2 2 2 2 2 2 2 2 2 2 2 2 2 2 2 2 2 2 2 2 2 2 2 2 2 ",
"2 2 2 2 2 2 2 2 2 2 2 2 2 2 2 2 2 2 2 2 2 2 2 2 2 2 2 2 2 2 2 2 2 2 2 2 2 2 2 2 2 2 2 2 2 2 2 2 "
};
