/* XPM */
static char *daadfa67fd4042ddd583bb7f6c8d49b06Yw1BWiWVFOjLZXA[] = {
/* columns rows colors chars-per-pixel */
"48 48 162 2 ",
"   c #C0D470",
".  c #C1D470",
"X  c #BED36F",
"o  c #BAD06D",
"O  c #BBD16D",
"+  c #BFD36F",
"@  c #AFC968",
"#  c #BBD16E",
"$  c #ADC867",
"%  c #B5CD6B",
"&  c #C1D570",
"*  c #C0D370",
"=  c #BFD06F",
"-  c #BFCD6E",
";  c #BFCC6E",
":  c #BFD16F",
">  c #BEC46C",
",  c #BBB669",
"<  c #BBB168",
"1  c #BBB268",
"2  c #C0D270",
"3  c #BFCA6E",
"4  c #BDB56B",
"5  c #BB9F68",
"6  c #BA9767",
"7  c #BA9867",
"8  c #BA9967",
"9  c #BEC66D",
"0  c #BEBA6D",
"q  c #C2AC71",
"w  c #C6A377",
"e  c #C7A078",
"r  c #BEC86D",
"t  c #BAB068",
"y  c #BEA46C",
"u  c #CBAB7E",
"i  c #D8BA90",
"p  c #DDBF97",
"a  c #DCBF96",
"s  c #BEC56C",
"d  c #B9A465",
"f  c #BE996B",
"g  c #CFAC83",
"h  c #E2C79E",
"j  c #EAD1A9",
"k  c #E9D0A7",
"l  c #E8CFA6",
"z  c #BE986B",
"x  c #D0AD84",
"c  c #E3C89F",
"v  c #EBD3AA",
"b  c #EAD1A8",
"n  c #BDC46C",
"m  c #B8A265",
"M  c #BB9469",
"N  c #CBA67E",
"B  c #DDC096",
"V  c #E7CCA3",
"C  c #BCC36C",
"Z  c #B59F63",
"A  c #B58C63",
"S  c #C19770",
"D  c #D0AD82",
"F  c #DDBF94",
"G  c #E6CBA2",
"H  c #EAD2A9",
"J  c #BBC26B",
"K  c #B29C62",
"L  c #AF865E",
"P  c #B88B64",
"I  c #C59D71",
"U  c #D4B184",
"Y  c #E0C398",
"T  c #E5CCA2",
"R  c #BBC16B",
"E  c #B29B61",
"W  c #AE845C",
"Q  c #B58760",
"!  c #C1976A",
"~  c #CCA578",
"^  c #D4B286",
"/  c #D9B98E",
"(  c #AE845D",
")  c #B68961",
"_  c #C19669",
"`  c #C69E70",
"'  c #C9A174",
"]  c #CAA276",
"[  c #B68962",
"{  c #C09669",
"}  c #C49A6C",
"|  c #C49A6B",
" . c #C3996B",
".. c #C49B6C",
"X. c #AF845D",
"o. c #C59B6C",
"O. c #BBC16A",
"+. c #B19B61",
"@. c #AF845E",
"#. c #B78962",
"$. c #C1966A",
"%. c #C59B6D",
"&. c #C0D46F",
"*. c #AE845E",
"=. c #BFD46F",
"-. c #C09569",
";. c #C3D674",
":. c #C8D97C",
">. c #C8D97B",
",. c #C2D573",
"<. c #AE835D",
"1. c #B48660",
"2. c #BC9066",
"3. c #D8E494",
"4. c #D8E392",
"5. c #C7D879",
"6. c #B29B62",
"7. c #AE825D",
"8. c #B1825E",
"9. c #B88A63",
"0. c #BD9267",
"q. c #C2976B",
"w. c #D8E493",
"e. c #DBE597",
"r. c #CFDE86",
"t. c #B29A62",
"y. c #AD815C",
"u. c #B0815D",
"i. c #B58861",
"p. c #BA8E65",
"a. c #BE9368",
"s. c #C7D97B",
"d. c #D0DE87",
"f. c #AE835C",
"g. c #B98C63",
"h. c #BA8D64",
"j. c #BFD36E",
"k. c #BDC66C",
"l. c #B5A965",
"z. c #B19260",
"x. c #B28A60",
"c. c #B58961",
"v. c #B78A62",
"b. c #BFCF6F",
"n. c #B9B368",
"m. c #B89E65",
"M. c #B78E62",
"N. c #BFD26F",
"B. c #BEC96E",
"V. c #BCB369",
"C. c #B99D66",
"Z. c #B89564",
"A. c #B89664",
"S. c #C0D170",
"D. c #BEC56D",
"F. c #BDB86B",
"G. c #BCB26A",
"H. c #BCB36A",
"J. c #C0D16F",
"K. c #BFCD6F",
"L. c #BFCC6F",
"P. c black",
/* pixels */
"                                                                                                ",
"                                                                                                ",
"                                                                                                ",
"                                                                                                ",
"      . .     . .                                                                             . ",
"    X o O + + O o X                                                                           . ",
"  . o @ @ # # @ @ o .                                                                           ",
"  . o @ $ % % $ @ o .                                                                           ",
"    X # % $ $ % # X                                                                             ",
"      & # @ @ # &                   * = - ; ; ; ; ; ; - = *                                     ",
"        X o o X                     : > , < < 1 1 < < , > :               . .     . .           ",
"          . .                   * 2 3 4 5 6 7 8 8 7 6 5 4 3 2 *         X o O + + O o X         ",
"                                = 9 0 q w e e e e e e w q 0 9 =       . o @ @ # # @ @ o .       ",
"                                r t y u i p a a a a p i u y t r       . o @ $ % % $ @ o .       ",
"                              * s d f g h j k l l k j h g f d s *       X # % $ $ % # X         ",
"                              * > d z x c v b k k b v c x z d > *         & # @ @ # &           ",
"                              * n m M N B V l k k l V B N M m n *           X o o X             ",
"                              * C Z A S D F G H H G F D S A Z C *             . .               ",
"                              * J K L P I U Y T T Y U I P L K J *                               ",
"                              * R E W Q ! ~ ^ / / ^ ~ ! Q W E R *                               ",
"                              * R E ( ) _ ` ' ] ] ' ` _ ) ( E R *                               ",
"                              * R E ( [ { } |  . .| } { [ ( E R *                               ",
"                              * R E ( [ { ..}  . .} ..{ [ ( E R *                               ",
"                              * R E X.[ _ o.} } } } o._ [ ( E R *                               ",
"                              * O.+.@.[ _ o.} } } } o._ [ ( E R *                               ",
"                              * O.+.@.#.$.%...} } ..%.$.#.( E R *                 &.&.    &.&.  ",
"                              * R E @.#.$.%...} } ..%.$.#.*.E R *                 =.=.    =.=.  ",
"                              * R E ( [ -.} } } } } } -.[ ( E R *               ;.:.>.,.,.>.:.;.",
"                              * R E <.1.2.! } } } } ! 2.1.<.E R *           &.=.:.3.4.5.5.4.3.:.",
"                              * J 6.7.8.9.0.q.} } q.0.9.8.7.6.J *           &.=.>.w.e.r.r.e.w.>.",
"                              * R t.y.u.i.p.a.-.-.a.p.i.u.y.t.R *               ,.s.d.e.e.d.s.,.",
"                              * J 6.f.u.i.g.h.p.p.h.g.i.u.f.6.J *               =.j.s.w.w.s.j.=.",
"                                k.l.z.x.c.v.v.v.v.v.v.c.x.z.l.k.                  =.,.>.>.,.=.  ",
"                                b.C n.m.M.v.v.v.v.v.v.M.m.n.C b.                      =.=.      ",
"                                * N.B.V.C.Z.A.A.A.A.Z.C.V.B.N.*                       &.&.      ",
"          &.&.    &.&.              S.D.F.G.H.H.H.H.G.F.D.S.                                    ",
"          =.=.    =.=.              * J.K.L.L.L.L.L.L.K.J.*                                     ",
"        ;.:.>.,.,.>.:.;.                                                                        ",
"    &.=.:.3.4.5.5.4.3.:.=.&.                                                                    ",
"    &.=.>.w.e.r.r.e.w.>.=.&.                                                                    ",
"        ,.s.d.e.e.d.s.,.                                                                        ",
"        =.j.s.w.w.s.j.=.                                                                        ",
"          =.,.>.>.,.=.                                                                          ",
"              =.=.                                                                              ",
"              &.&.                                                                              ",
"                                                                                                ",
"                                                                                                ",
"                                                                                                "
};
